<?xml version="1.0" encoding="UTF-8"?>
<!DOCTYPE svg PUBLIC "-//W3C//DTD SVG 1.1//EN" "http://www.w3.org/Graphics/SVG/1.1/DTD/svg11.dtd">
<!-- Creator: CorelDRAW X5 -->
<svg xmlns="http://www.w3.org/2000/svg" xml:space="preserve" width="5.5in" height="1in" style="shape-rendering:geometricPrecision; text-rendering:geometricPrecision; image-rendering:optimizeQuality; fill-rule:evenodd; clip-rule:evenodd"
viewBox="0 0 5500 1000"
 xmlns:xlink="http://www.w3.org/1999/xlink">
 <defs>
  <style type="text/css">
   <![CDATA[
    .fil0 {fill:white}
    .fil1 {fill:white;fill-rule:nonzero}
   ]]>
  </style>
 </defs>
 <g id="Layer_x0020_1">
  <metadata id="CorelCorpID_0Corel-Layer"/>
  <path id="Mouth" class="fil0" d="M334 786c61,68 148,107 240,107 91,0 179,-39 240,-107l-479 0zm-175 -107c0,0 4,0 830,0 -49,189 -220,321 -415,321 -195,0 -366,-132 -415,-321z"/>
  <polygon id="Eye_x0020_R" class="fil0" points="859,500 716,500 716,643 "/>
  <polygon id="Eye_x0020_L" class="fil0" points="288,500 430,500 430,643 "/>
  <path class="fil0" d="M988 464c-49,-189 -220,-321 -415,-321 -195,0 -366,132 -415,321 0,0 4,0 830,0z"/>
  <path class="fil0" d="M145 464l-60 0c49,-225 249,-393 488,-393 239,0 439,168 488,393l-60 0 0 214 143 0 0 -107c0,-316 -256,-571 -571,-571 -316,0 -571,256 -571,571l0 107 143 0 0 -214z"/>
  <path class="fil1" d="M2016 829c0,52 -11,93 -33,124 -22,31 -55,46 -99,46 -19,0 -35,-4 -49,-12 -14,-8 -26,-19 -36,-35l-6 40 -93 0 0 -492 107 0 0 184c9,-13 20,-22 33,-29 12,-7 27,-10 43,-10 44,0 77,16 100,48 22,32 34,75 34,129l0 7zm-106 -7c0,-30 -4,-54 -11,-71 -8,-17 -22,-25 -42,-25 -12,0 -21,2 -30,6 -8,4 -15,11 -20,19l0 144c5,7 12,12 20,16 8,4 18,5 30,5 21,0 35,-7 42,-22 7,-15 11,-37 11,-66l0 -7zm359 119c-10,19 -23,33 -39,43 -16,10 -35,15 -56,15 -35,0 -63,-12 -83,-37 -20,-25 -30,-63 -30,-115l0 -196 106 0 0 196c0,27 3,45 10,55 7,10 17,15 32,15 11,0 21,-2 30,-5 9,-3 16,-8 22,-14l0 -247 107 0 0 341 -86 0 -13 -51zm346 -199l-35 0c-12,0 -22,2 -30,7 -8,5 -14,11 -17,19l0 225 -107 0 0 -341 100 0 4 50c7,-18 17,-32 28,-42 12,-10 26,-15 41,-15 5,0 9,0 13,1 4,1 8,2 12,3l-10 93zm228 0l-35 0c-12,0 -22,2 -30,7 -8,5 -14,11 -17,19l0 225 -107 0 0 -341 100 0 4 50c7,-18 17,-32 28,-42 12,-10 26,-15 41,-15 5,0 9,0 13,1 4,1 8,2 12,3l-10 93zm151 250l-107 0 0 -341 107 0 0 341zm0 -421l-107 0 0 -72 107 0 0 72zm217 427c-52,0 -92,-16 -122,-47 -29,-31 -44,-71 -44,-119l0 -12c0,-52 14,-95 42,-127 28,-33 68,-49 120,-49 46,0 82,14 107,41 25,28 38,65 38,113l0 56 -196 0 -1 2c2,18 8,32 20,43 12,11 28,17 50,17 20,0 37,-2 51,-5 14,-3 29,-9 47,-16l26 65c-15,11 -34,20 -59,27 -25,7 -51,11 -78,11zm-4 -272c-17,0 -30,5 -38,16 -8,11 -13,26 -14,44l1 2 92 0 0 -8c0,-18 -3,-31 -9,-40 -6,-9 -17,-14 -32,-14zm336 190c14,0 25,-4 32,-12 7,-8 11,-19 11,-34l97 0 1 2c1,37 -12,68 -39,91 -27,23 -61,35 -102,35 -52,0 -92,-16 -120,-48 -28,-32 -42,-74 -42,-125l0 -7c0,-51 14,-93 42,-125 28,-32 68,-48 120,-48 43,0 78,12 104,36 26,24 39,57 38,99l-1 2 -97 0c0,-16 -4,-29 -11,-40 -7,-10 -18,-15 -33,-15 -21,0 -35,8 -43,25 -8,16 -12,39 -12,67l0 7c0,29 4,51 12,67 8,16 23,24 44,24zm390 24c-10,19 -23,33 -39,43 -16,10 -35,15 -56,15 -35,0 -63,-12 -83,-37 -20,-25 -30,-63 -30,-115l0 -196 106 0 0 196c0,27 3,45 10,55 7,10 17,15 32,15 11,0 21,-2 30,-5 9,-3 16,-8 22,-14l0 -247 107 0 0 341 -86 0 -13 -51zm474 -112c0,52 -11,93 -33,124 -22,31 -55,46 -99,46 -19,0 -35,-4 -49,-12 -14,-8 -26,-19 -36,-35l-6 40 -93 0 0 -492 107 0 0 184c9,-13 20,-22 33,-29 12,-7 27,-10 43,-10 44,0 77,16 100,48 22,32 34,75 34,129l0 7zm-106 -7c0,-30 -4,-54 -11,-71 -8,-17 -22,-25 -42,-25 -12,0 -21,2 -30,6 -8,4 -15,11 -20,19l0 144c5,7 12,12 20,16 8,4 18,5 30,5 21,0 35,-7 42,-22 7,-15 11,-37 11,-66l0 -7zm305 177c-52,0 -92,-16 -122,-47 -29,-31 -44,-71 -44,-119l0 -12c0,-52 14,-95 42,-127 28,-33 68,-49 120,-49 46,0 82,14 107,41 25,28 38,65 38,113l0 56 -196 0 -1 2c2,18 8,32 20,43 12,11 28,17 50,17 20,0 37,-2 51,-5 14,-3 29,-9 47,-16l26 65c-15,11 -34,20 -59,27 -25,7 -51,11 -78,11zm-4 -272c-17,0 -30,5 -38,16 -8,11 -13,26 -14,44l1 2 92 0 0 -8c0,-18 -3,-31 -9,-40 -6,-9 -17,-14 -32,-14zm176 96c0,-53 12,-96 35,-129 23,-33 56,-49 98,-49 16,0 30,4 43,11 13,7 24,18 34,31l0 -186 107 0 0 492 -93 0 -7 -42c-10,16 -22,28 -36,36 -14,8 -30,12 -47,12 -42,0 -75,-16 -98,-47 -23,-31 -35,-72 -35,-123l0 -7zm107 7c0,28 4,49 12,65 8,16 22,23 41,23 11,0 21,-2 30,-6 9,-4 16,-10 21,-18l0 -138c-5,-9 -12,-16 -21,-21 -8,-5 -18,-7 -29,-7 -19,0 -33,9 -41,26 -8,17 -13,41 -13,69l0 7z"/>
  <path class="fil0" d="M5162 250l337 0 0 750 -337 0 0 -750zm243 649l0 49 -41 0 0 -49 41 0zm-35 -102c0,-7 -2,-12 -5,-15 -4,-3 -9,-5 -16,-5l0 -45 1 0c17,0 31,6 42,18 11,12 16,28 16,47 0,24 -7,42 -22,55 -15,13 -34,19 -58,19l-3 0c-24,0 -43,-6 -57,-19 -15,-13 -22,-31 -22,-55 0,-20 6,-36 17,-48 11,-12 26,-18 45,-17l1 0 0 45c-7,0 -13,2 -18,5 -5,3 -7,8 -7,15 0,9 4,16 11,20 8,4 18,6 31,6l3 0c13,0 23,-2 31,-6 7,-4 11,-10 11,-20zm-45 -78c-24,0 -43,-7 -57,-20 -15,-13 -22,-32 -22,-56 0,-24 7,-42 22,-56 15,-13 34,-20 57,-20l3 0c24,0 43,7 58,20 15,13 22,32 22,56 0,24 -7,43 -22,56 -15,13 -34,20 -58,20l-3 0zm3 -49c13,0 23,-2 31,-6 7,-4 11,-11 11,-21 0,-10 -4,-16 -11,-21 -8,-4 -18,-6 -31,-6l-3 0c-13,0 -23,2 -31,6 -8,4 -12,11 -12,21 0,10 4,17 12,21 8,4 18,6 31,6l3 0zm-80 -170l21 -2c-8,-5 -13,-11 -17,-19 -4,-7 -6,-16 -6,-26 0,-10 2,-18 6,-25 4,-7 11,-12 19,-16 -8,-5 -15,-11 -19,-19 -4,-8 -7,-16 -7,-27 0,-15 5,-27 16,-36 11,-9 28,-13 51,-13l92 0 0 49 -92 0c-11,0 -19,2 -23,5 -4,3 -6,8 -6,14 0,5 1,9 3,13 2,4 4,7 7,9 2,0 3,0 4,0 1,0 2,0 4,0l104 0 0 49 -92 0c-11,0 -19,2 -23,5 -4,3 -6,8 -6,14 0,4 1,8 3,12 2,4 4,7 7,9l112 0 0 49 -156 0 0 -46z"/>
 </g>
</svg>
